<svg xmlns="http://www.w3.org/2000/svg" width="1440" height="1153" viewBox="0 0 1440 1153">
    <g fill="none" stroke="#F47079" opacity=".251">
        <path d="M1047.771 488.5c-25.414 0-43.023 7.412-56.37 19.568-17.823 16.232-28.065 40.883-39.172 67.56-14.145 33.975-29.674 71.23-63.762 98.761-17.554 14.177-24.763 30.957-24.223 48.539.612 19.878 11.1 40.755 27.65 60.04 36.085 42.05 101.01 76.532 155.877 76.532 53.033 0 106.744-23.974 143.187-60.416 33.933-33.932 52.903-78.687 42.33-124.973-11.84-51.839-35.087-101.78-70.09-136.783-29.851-29.85-68.256-48.828-115.427-48.828zM318.17 134.5c-25.47 0-43.117 7.412-56.494 19.569-17.861 16.231-28.125 40.882-39.256 67.559-14.176 33.975-29.738 71.23-63.9 98.761-17.592 14.177-24.818 30.957-24.276 48.539.613 19.877 11.125 40.755 27.71 60.04 36.164 42.05 101.23 76.532 156.216 76.532 57.287 0 107.28-4.195 140.973-37.815 26.694-26.635 43.128-71.721 44.935-147.697 1.786-75.125-13.85-120.044-40.65-146.785-34.51-34.434-87.467-38.703-145.258-38.703z"/>
        <path d="M1046.932 425.5c-34.189 0-57.875 9.982-75.83 26.346-23.956 21.832-37.728 54.984-52.656 90.867-18.99 45.64-39.831 95.691-85.594 132.676-23.627 19.096-33.326 41.7-32.598 65.38.822 26.75 14.921 54.851 37.179 80.805 48.5 56.554 135.758 102.926 209.499 102.926 71.277 0 143.465-32.242 192.445-81.255 45.621-45.65 71.117-105.864 56.903-168.134-15.912-69.708-47.153-136.863-94.19-183.931-40.126-40.152-91.75-65.68-155.158-65.68zM318.244 70.5c-34.232 0-57.948 9.975-75.927 26.33-23.985 21.818-37.775 54.95-52.722 90.81-19.013 45.612-39.881 95.632-85.701 132.593-23.658 19.084-33.369 41.673-32.64 65.338.823 26.734 14.94 54.817 37.226 80.755 48.56 56.519 135.93 102.862 209.764 102.862 10.15 0 21.082.786 32.296 1.593 28.056 2.02 57.89 4.188 81.6-5.637 16.96-7.028 30.761-20.214 38.512-44.004 8.98-27.564 28.494-52.301 47.912-76.898 30.247-38.315 60.32-76.294 49.344-124.287-15.932-69.664-47.212-136.777-94.31-183.816C433.423 96.012 381.733 70.5 318.245 70.5z"/>
        <path d="M1046.52 354.5c-43.717 0-74.002 12.772-96.962 33.707-30.615 27.914-48.22 70.298-67.3 116.176-24.248 58.31-50.86 122.255-109.3 169.506-30.223 24.437-42.624 53.365-41.693 83.667 1.05 34.216 19.07 70.16 47.527 103.356 61.98 72.304 173.493 131.588 267.729 131.588 91.088 0 183.341-41.221 245.936-103.884 58.314-58.378 90.895-135.378 72.727-215.005-20.332-89.113-60.254-174.96-120.36-235.132-51.283-51.34-117.263-83.979-198.303-83.979zM316.194.5c-43.672 0-73.926 12.772-96.862 33.707-30.583 27.913-48.17 70.298-67.23 116.176-24.223 58.31-50.807 122.255-109.186 169.506C12.723 344.326.335 373.254 1.265 403.556c1.05 34.216 19.05 70.16 47.478 103.356C110.658 579.216 222.056 638.5 316.194 638.5c52.867 0 109.656-6.285 150.077-28.06 31.124-16.766 52.523-42.733 54.852-82.134 3.261-55.179 37.255-88.403 67.523-117.945 28.908-28.213 54.477-53.038 45.881-90.75-20.311-89.113-60.192-174.96-120.235-235.132C463.062 33.139 397.15.5 316.194.5z"/>
        <path d="M1046.044 280.5c-53.932 0-91.292 15.744-119.616 41.544-37.753 34.39-59.468 86.603-82.996 143.126-29.887 71.797-62.683 150.538-134.712 208.719-37.294 30.124-52.593 65.786-51.444 103.14 1.297 42.162 23.519 86.457 58.62 127.365 76.43 89.075 213.943 162.106 330.148 162.106 112.325 0 226.087-50.782 303.276-127.98 71.92-71.927 112.096-166.802 89.69-264.909-25.071-109.775-74.3-215.525-148.413-289.647-63.244-63.252-144.613-103.464-244.553-103.464z"/>
        <path d="M1044.41 194.5c-65.791 0-111.365 19.198-145.917 50.652-46.042 41.915-72.528 105.553-101.222 174.445-36.434 87.473-76.41 183.408-164.217 254.292-45.504 36.734-64.166 80.22-62.765 125.77 1.582 51.398 28.684 105.398 71.5 155.269 93.207 108.564 260.907 197.572 402.621 197.572 136.983 0 275.718-61.892 369.851-155.982 87.717-87.675 136.713-203.322 109.385-322.907-30.573-133.787-90.605-262.667-180.983-353.003-77.131-77.095-176.368-126.108-298.253-126.108z"/>
    </g>
</svg>
