<?xml version="1.0" encoding="UTF-8"?>
<svg width="61px" height="61px" viewBox="0 0 61 61" version="1.1" xmlns="http://www.w3.org/2000/svg" xmlns:xlink="http://www.w3.org/1999/xlink">
    <title>gomoney blue@2x</title>
    <defs>
        <path d="M21.9304487,-8.86016379e-16 L38.6575522,-8.86016379e-16 C46.2832469,-8.86016379e-16 49.0485081,0.79399316 51.8363482,2.28494633 C54.6241882,3.7758995 56.8121014,5.96381268 58.3030546,8.75165272 C59.7940078,11.5394928 60.5880009,14.304754 60.5880009,21.9304487 L60.5880009,38.6575522 C60.5880009,46.2832469 59.7940078,49.0485081 58.3030546,51.8363482 C56.8121014,54.6241882 54.6241882,56.8121014 51.8363482,58.3030546 C49.0485081,59.7940078 46.2832469,60.5880009 38.6575522,60.5880009 L21.9304487,60.5880009 C14.304754,60.5880009 11.5394928,59.7940078 8.75165272,58.3030546 C5.96381268,56.8121014 3.7758995,54.6241882 2.28494633,51.8363482 C0.79399316,49.0485081 -5.90677586e-16,46.2832469 -5.90677586e-16,38.6575522 L-5.90677586e-16,21.9304487 C-5.90677586e-16,14.304754 0.79399316,11.5394928 2.28494633,8.75165272 C3.7758995,5.96381268 5.96381268,3.7758995 8.75165272,2.28494633 C11.5394928,0.79399316 14.304754,-8.86016379e-16 21.9304487,-8.86016379e-16 Z" id="path-1"></path>
        <path d="M13.3662752,-5.40013515e-16 L45.3100032,-5.40013515e-16 C49.9577482,-5.40013515e-16 51.643133,0.483926762 53.3422791,1.39264006 C55.0414252,2.30135335 56.374925,3.63485317 57.2836384,5.33399931 C58.1923516,7.03314543 58.6762784,8.71853011 58.6762784,13.3662752 L58.6762784,45.3100032 C58.6762784,49.9577482 58.1923516,51.643133 57.2836384,53.3422791 C56.374925,55.0414252 55.0414252,56.374925 53.3422791,57.2836384 C51.643133,58.1923516 49.9577482,58.6762784 45.3100032,58.6762784 L13.3662752,58.6762784 C8.71853011,58.6762784 7.03314543,58.1923516 5.33399931,57.2836384 C3.63485317,56.374925 2.30135335,55.0414252 1.39264006,53.3422791 C0.483926762,51.643133 -3.6000901e-16,49.9577482 -3.6000901e-16,45.3100032 L-3.6000901e-16,13.3662752 C-3.6000901e-16,8.71853011 0.483926762,7.03314543 1.39264006,5.33399931 C2.30135335,3.63485317 3.63485317,2.30135335 5.33399931,1.39264006 C7.03314543,0.483926762 8.71853011,-5.40013515e-16 13.3662752,-5.40013515e-16 Z" id="path-3"></path>
    </defs>
    <g id="Symbols" stroke="none" stroke-width="1" fill="none" fill-rule="evenodd">
        <g id="Navigation">
            <g id="Group-15">
                <g id="gomoney-blue@2x">
                    <g id="Group-Copy">
                        <g id="Mask">
                            <g id="path-1-link" fill="#000000" fill-rule="nonzero">
                                <path d="M21.9304487,-8.86016379e-16 L38.6575522,-8.86016379e-16 C46.2832469,-8.86016379e-16 49.0485081,0.79399316 51.8363482,2.28494633 C54.6241882,3.7758995 56.8121014,5.96381268 58.3030546,8.75165272 C59.7940078,11.5394928 60.5880009,14.304754 60.5880009,21.9304487 L60.5880009,38.6575522 C60.5880009,46.2832469 59.7940078,49.0485081 58.3030546,51.8363482 C56.8121014,54.6241882 54.6241882,56.8121014 51.8363482,58.3030546 C49.0485081,59.7940078 46.2832469,60.5880009 38.6575522,60.5880009 L21.9304487,60.5880009 C14.304754,60.5880009 11.5394928,59.7940078 8.75165272,58.3030546 C5.96381268,56.8121014 3.7758995,54.6241882 2.28494633,51.8363482 C0.79399316,49.0485081 -5.90677586e-16,46.2832469 -5.90677586e-16,38.6575522 L-5.90677586e-16,21.9304487 C-5.90677586e-16,14.304754 0.79399316,11.5394928 2.28494633,8.75165272 C3.7758995,5.96381268 5.96381268,3.7758995 8.75165272,2.28494633 C11.5394928,0.79399316 14.304754,-8.86016379e-16 21.9304487,-8.86016379e-16 Z" id="path-1"></path>
                            </g>
                            <g id="path-1-link" fill="#091536">
                                <path d="M21.9304487,-8.86016379e-16 L38.6575522,-8.86016379e-16 C46.2832469,-8.86016379e-16 49.0485081,0.79399316 51.8363482,2.28494633 C54.6241882,3.7758995 56.8121014,5.96381268 58.3030546,8.75165272 C59.7940078,11.5394928 60.5880009,14.304754 60.5880009,21.9304487 L60.5880009,38.6575522 C60.5880009,46.2832469 59.7940078,49.0485081 58.3030546,51.8363482 C56.8121014,54.6241882 54.6241882,56.8121014 51.8363482,58.3030546 C49.0485081,59.7940078 46.2832469,60.5880009 38.6575522,60.5880009 L21.9304487,60.5880009 C14.304754,60.5880009 11.5394928,59.7940078 8.75165272,58.3030546 C5.96381268,56.8121014 3.7758995,54.6241882 2.28494633,51.8363482 C0.79399316,49.0485081 -5.90677586e-16,46.2832469 -5.90677586e-16,38.6575522 L-5.90677586e-16,21.9304487 C-5.90677586e-16,14.304754 0.79399316,11.5394928 2.28494633,8.75165272 C3.7758995,5.96381268 5.96381268,3.7758995 8.75165272,2.28494633 C11.5394928,0.79399316 14.304754,-8.86016379e-16 21.9304487,-8.86016379e-16 Z" id="path-1"></path>
                            </g>
                        </g>
                        <g id="Path-2-Clipped">
                            <mask id="mask-2" fill="white">
                                <use xlink:href="#path-1"></use>
                            </mask>
                            <g id="path-1"></g>
                            <g id="Path-2" mask="url(#mask-2)">
                                <g transform="translate(6.500000, -7.200000)" id="Group">
                                    <g transform="translate(30.231992, 30.219190) scale(-1, 1) rotate(-90.000000) translate(-30.231992, -30.219190) translate(0.731992, 0.719190)">
                                        <g transform="translate(0.002641, -0.002595)" id="Group-7-Clipped">
                                            <g>
                                                <mask id="mask-4" fill="white">
                                                    <use xlink:href="#path-3"></use>
                                                </mask>
                                                <g id="path-4"></g>
                                                <g id="Group-7" mask="url(#mask-4)">
                                                    <g transform="translate(-6.300000, -17.800000)" id="Combined-Shape">
                                                        <g transform="translate(40.488932, 42.566639) rotate(176.000000) translate(-40.488932, -42.566639) translate(2.988932, 3.066639)">
                                                            <path d="M55.9757683,7.31179032 C56.0001041,8.6073364 66.9605448,24.0314197 65.7274451,33.1248402 C65.0493428,38.2599941 42.0830943,41.7493419 42.1535164,43.3159843 C42.2653004,45.7984647 48.5114724,44.9338146 54.4522443,43.5740022 C58.9237797,42.550332 63.3729404,41.3789012 64.0669101,40.4007025 C64.5975717,40.3115785 63.7590139,50.3353011 62.6748703,51.0459547 C61.7906719,51.6255639 57.2195652,52.4291524 52.3553598,52.819687 C46.2885412,53.3076605 40.2140564,52.7754282 39.9607152,53.6661486 C39.548434,55.1131795 46.4223432,55.8719894 47.1180956,56.1689828 C47.8136697,56.4658896 50.9710754,57.9049523 52.9355843,57.9732027 C54.9000932,58.0413666 60.7964725,58.3489267 61.4940077,58.7489021 C61.4940077,58.7489021 60.3997019,59.4397214 60.0596256,59.7021565 C58.385541,60.9957105 53.764069,65.3312601 53.764069,65.3312601 C53.764069,65.3312601 48.9812501,64.7847368 44.3141376,63.4720414 C39.6461335,62.1594327 35.3256044,60.925468 35.1748655,61.5882249 C34.8809647,62.8824718 42.6226702,65.5464915 45.0145254,65.4866425 C47.422426,65.4256674 49.5661101,64.875593 49.6202192,64.8626012 C49.5523822,64.9582211 45.2027039,71.0862979 39.4131166,71.1891932 C33.5769972,71.2927815 32.8314145,69.1481754 31.8009343,68.9170939 C30.7703649,68.6867053 27.7957001,67.4305678 27.582027,66.3125769 C27.368443,65.194586 27.4788898,60.8292417 27.4788898,60.8292417 L27.4788898,60.8292417 L55.9757683,7.31179032 Z M55.9435047,7.31179032 L27.4403569,60.7791693 C27.4403569,60.7791693 23.8387767,63.3855439 22.7766637,63.860705 C21.7138381,64.3365583 18.9430972,62.7037875 18.1542187,62.020127 C17.3660529,61.3355144 15.1346536,61.9819583 11.8538811,57.2956076 C8.57399941,52.6101224 11.2782804,45.5520348 11.2782804,45.5520348 C11.2782804,45.5520348 12.0562901,47.5959193 13.4111478,49.5645916 C14.740437,51.4955281 21.4455927,56.0960209 22.3627587,55.1162719 C22.8326113,54.6144534 19.3029256,51.9011026 15.5070434,48.9577877 C11.7120522,46.0153383 8.49319615,42.5388737 8.49319615,42.5388737 C8.49319615,42.5388737 9.46693329,36.3738117 9.5882718,34.3009329 C9.61250387,33.8798659 9.56109981,32.6134624 9.56109981,32.6134624 C10.2995543,32.9362083 13.9599328,37.4323216 15.151224,38.9502401 C16.3417134,40.4682452 19.3724146,42.1413484 20.0228496,42.5211309 C20.6733737,42.9016059 25.2771994,47.9134722 26.2542328,46.751708 C26.8563818,46.0372356 22.9045948,41.5290053 19.8131354,36.4375993 C17.3358519,32.3559753 15.3726089,28.2685524 15.3486441,27.2328054 C15.320314,25.9634592 23.2548907,19.5162434 23.4864317,19.9882885 C23.0645977,21.1020173 24.6486801,25.3052445 26.3695133,29.4410489 C28.6550783,34.9353463 31.5322801,40.3854166 33.6820743,39.0418968 C35.0382682,38.1937043 24.7174565,17.97461 28.6379733,14.4734786 C35.563623,8.2503414 54.8416584,8.04037046 55.9435047,7.31179032 L55.9435047,7.31179032 Z" id="Shape" fill="#0C2878" fill-rule="nonzero" transform="translate(37.158697, 39.252308) rotate(18.000000) translate(-37.158697, -39.252308) "></path>
                                                        </g>
                                                    </g>
                                                </g>
                                            </g>
                                        </g>
                                    </g>
                                </g>
                            </g>
                        </g>
                    </g>
                    <path d="M15.0319177,25.2275587 C15.0319177,28.3277758 17.0368514,30.5657451 19.8514698,30.5657451 C20.4105379,30.5657451 20.9503277,30.4688633 21.441922,30.2944761 C20.516568,29.8488198 19.8707481,28.8896901 19.8707481,27.7852378 C19.8707481,26.2545056 21.1045534,25.0047306 22.6275318,25.0047306 C23.4372166,25.0047306 24.1697886,25.3535051 24.671022,25.9154194 C24.6999393,25.6925913 24.7095784,25.460075 24.7095784,25.2275587 C24.7095784,22.1564061 22.6275318,19.9281251 19.8514698,19.9281251 C17.0368514,19.9281251 15.0319177,22.1564061 15.0319177,25.2275587 L15.0319177,25.2275587 Z M10.8678247,25.2275587 C10.8678247,20.1025123 14.6849099,16.0528537 19.8514698,16.0528537 C25.0565862,16.0528537 28.8736714,20.1025123 28.8736714,25.2275587 C28.8736714,30.3913579 25.0565862,34.4313282 19.8514698,34.4313282 C14.6077971,34.4313282 10.8678247,30.3913579 10.8678247,25.2275587 L10.8678247,25.2275587 Z M46.1353794,25.2275587 C46.1353794,22.1564061 44.0533329,19.9281251 41.2772708,19.9281251 C38.4626524,19.9281251 36.4480796,22.1564061 36.4480796,25.2275587 C36.4480796,28.3277758 38.4626524,30.5657451 41.2772708,30.5657451 C41.8363389,30.5657451 42.3761287,30.4688633 42.867723,30.2944761 C41.9327299,29.8391316 41.296549,28.8896901 41.296549,27.7852378 C41.296549,26.2545056 42.5303544,25.0047306 44.0533329,25.0047306 C44.8630177,25.0047306 45.5955896,25.3535051 46.096823,25.9154194 C46.1257403,25.6925913 46.1353794,25.460075 46.1353794,25.2275587 L46.1353794,25.2275587 Z M50.2994724,25.2275587 C50.2994724,30.3913579 46.4823872,34.4313282 41.2772708,34.4313282 C36.0335981,34.4313282 32.2936257,30.3913579 32.2936257,25.2275587 C32.2936257,20.1025123 36.1010718,16.0528537 41.2772708,16.0528537 C46.4823872,16.0528537 50.2994724,20.1025123 50.2994724,25.2275587 L50.2994724,25.2275587 Z M26.5747451,15.9985999 C26.8870521,17.227061 28.1314604,17.9682066 29.3527349,17.6543097 C30.5749734,17.3394439 31.3123649,16.0896688 30.999094,14.8612077 L26.5747451,15.9985999 Z M24.7115063,37.1042967 L28.8755992,37.1042967 C28.8755992,42.2584076 25.058514,46.2983781 19.8533977,46.2983781 C14.6097249,46.2983781 10.8601134,42.2584076 10.8601134,37.1042967 L15.0242064,37.1042967 C15.0242064,40.1948256 17.0387793,42.4231066 19.8533977,42.4231066 C22.6294597,42.4231066 24.7115063,40.1948256 24.7115063,37.1042967 L24.7115063,37.1042967 Z M50.2994724,39.0409636 L50.2994724,42.2768151 C50.2994724,43.2204437 49.7153427,43.8472689 48.7032368,43.8472689 C47.8578873,43.8472689 47.4019577,43.3754546 47.2409847,42.7757563 L47.9918709,42.6207455 C48.0593446,42.9501435 48.281044,43.1526265 48.7032368,43.1526265 C49.1929032,43.1526265 49.4946072,42.8493865 49.4946072,42.2835969 L49.4946072,41.9261031 L49.4878598,41.9057579 C49.2594131,42.181871 48.9846986,42.3707905 48.47479,42.3707905 C47.7441459,42.3707905 47.2544794,41.9396665 47.2544794,40.9553476 L47.2544794,39.0409636 L48.0593446,39.0409636 L48.0593446,40.8206819 C48.0593446,41.4271619 48.3273117,41.6160814 48.7302262,41.6160814 C49.1659138,41.6160814 49.4946072,41.3264048 49.4946072,40.7596464 L49.4946072,39.0409636 L50.2994724,39.0409636 Z M45.0066403,39.6135349 C44.4629948,39.6135349 44.1612909,39.9845922 44.0880337,40.368244 L45.871268,40.368244 C45.8510258,40.065004 45.5830587,39.6135349 45.0066403,39.6135349 L45.0066403,39.6135349 Z M44.0803224,40.9892562 C44.1140593,41.4135985 44.4764896,41.8321278 45.0066403,41.8321278 C45.4751008,41.8321278 45.7440318,41.5482641 45.8240363,41.3196231 L46.5016654,41.5288878 C46.3069555,42.0675505 45.8240363,42.4996432 45.0066403,42.4996432 C44.0475495,42.4996432 43.309194,41.7575288 43.309194,40.7199249 C43.309194,39.7016973 44.0475495,38.9469883 44.9998929,38.9469883 C45.9724786,38.9469883 46.5816699,39.6542253 46.5816699,40.6792345 L46.5816699,40.9892562 L44.0803224,40.9892562 Z M39.6530818,39.0409636 L40.3172161,39.0409636 L40.4319214,39.4449606 C40.6391621,39.1688475 40.9553247,38.9469883 41.4507747,38.9469883 C42.2084083,38.9469883 42.6518071,39.3848939 42.6518071,40.368244 L42.6518071,42.4046991 L41.8469419,42.4046991 L41.8469419,40.4767516 C41.8469419,39.8828663 41.5712635,39.6949156 41.1963024,39.6949156 C40.7866404,39.6949156 40.457947,39.9845922 40.457947,40.5581323 L40.457947,42.4046991 L39.6530818,42.4046991 L39.6530818,39.0409636 Z M38.1898658,40.7199249 C38.1898658,40.1260396 37.7879151,39.6949156 37.251017,39.6949156 C36.7083354,39.6949156 36.3189156,40.1260396 36.3189156,40.7199249 C36.3189156,41.3196231 36.7083354,41.7507471 37.251017,41.7507471 C37.7879151,41.7507471 38.1898658,41.3196231 38.1898658,40.7199249 L38.1898658,40.7199249 Z M35.5140504,40.7199249 C35.5140504,39.7288242 36.2524057,38.9469883 37.251017,38.9469883 C38.2573395,38.9469883 38.994731,39.7288242 38.994731,40.7199249 C38.994731,41.7168384 38.2573395,42.4996432 37.251017,42.4996432 C36.238911,42.4996432 35.5140504,41.7168384 35.5140504,40.7199249 L35.5140504,40.7199249 Z M29.9927714,39.0409636 L30.6569058,39.0409636 L30.7638998,39.4381789 C30.9653571,39.1688475 31.3200762,38.9469883 31.7972118,38.9469883 C32.300373,38.9469883 32.5683401,39.1891927 32.7023237,39.4517423 C32.9105283,39.182411 33.2594639,38.9469883 33.775156,38.9469883 C34.398806,38.9469883 34.8547356,39.3170767 34.8547356,40.1802934 L34.8547356,42.4046991 L34.0498704,42.4046991 L34.0498704,40.4031215 C34.0498704,39.8906168 33.829135,39.6949156 33.4801994,39.6949156 C33.1110217,39.6949156 32.8295599,39.964247 32.8295599,40.4970968 L32.8295599,42.4046991 L32.0246947,42.4046991 L32.0246947,40.4031215 C32.0246947,39.8906168 31.7837171,39.6949156 31.4482762,39.6949156 C31.0858459,39.6949156 30.7976367,39.9574653 30.7976367,40.4970968 L30.7976367,42.4046991 L29.9927714,42.4046991 L29.9927714,39.0409636 Z" id="Fill-1-Copy" fill="#FFFFFF" fill-rule="nonzero"></path>
                </g>
            </g>
        </g>
    </g>
</svg>